<svg xmlns="http://www.w3.org/2000/svg" viewBox="0 0 789.67 108.82"><defs><style>.a{fill:#090909;}</style></defs><title>VisitedCountry</title><polygon class="a" points="41.97 69.58 22.57 15.14 11.08 15.14 35.75 80.59 48.19 80.59 72.77 15.14 61.46 15.14 41.97 69.58"/><rect class="a" x="80.24" y="28.7" width="10.74" height="51.89"/><path class="a" d="M85.7,8.08A6.76,6.76,0,0,0,78.83,15a6.76,6.76,0,0,0,6.87,6.88,6.54,6.54,0,0,0,4.81-2,6.68,6.68,0,0,0,2-4.9,6.67,6.67,0,0,0-2-4.89A6.54,6.54,0,0,0,85.7,8.08Z"/><path class="a" d="M132.71,53.52a68.32,68.32,0,0,0-9.27-3.06c-2.83-.82-5-1.49-6.41-2a10.68,10.68,0,0,1-3.67-2.21,4.6,4.6,0,0,1-1.51-3.49,5,5,0,0,1,2.27-4.23,11.11,11.11,0,0,1,6.49-1.6A10.59,10.59,0,0,1,127.49,39a7.66,7.66,0,0,1,2.82,5.55h10.74a16.05,16.05,0,0,0-5.79-12.19q-5.41-4.47-14.27-4.47a26.15,26.15,0,0,0-10.5,2,16.37,16.37,0,0,0-7,5.42A12.79,12.79,0,0,0,101,42.83,12.08,12.08,0,0,0,103.71,51a16.66,16.66,0,0,0,6.36,4.62,85.28,85.28,0,0,0,9.51,3.11,52.46,52.46,0,0,1,8.8,3.1,4.61,4.61,0,0,1,2.78,4.33,5.25,5.25,0,0,1-2.5,4.48,12.12,12.12,0,0,1-7,1.74,11.51,11.51,0,0,1-7.21-2.21,7.6,7.6,0,0,1-3.15-5.51H100.18a15,15,0,0,0,3,8.52,19.28,19.28,0,0,0,7.68,6,26.21,26.21,0,0,0,11,2.21,25.82,25.82,0,0,0,10.5-2A16.18,16.18,0,0,0,139.26,74a13.44,13.44,0,0,0,2.45-7.91,12.15,12.15,0,0,0-2.73-8A17.22,17.22,0,0,0,132.71,53.52Z"/><path class="a" d="M156.67,8.08A6.75,6.75,0,0,0,149.8,15a6.75,6.75,0,0,0,6.87,6.88,6.5,6.5,0,0,0,4.8-2,6.65,6.65,0,0,0,2-4.9,6.64,6.64,0,0,0-2-4.89A6.5,6.5,0,0,0,156.67,8.08Z"/><rect class="a" x="151.21" y="28.7" width="10.74" height="51.89"/><path class="a" d="M186.38,15.8H175.55V28.7h-6.12v8.76h6.12V66.18q0,7.63,3.86,11t11.12,3.39H199V71.65h-6.59c-2.2,0-3.75-.43-4.66-1.28s-1.37-2.24-1.37-4.19V37.46H199V28.7H186.38Z"/><path class="a" d="M241.44,31.06a26.39,26.39,0,0,0-13.09-3.2,27.16,27.16,0,0,0-13.52,3.29,22.84,22.84,0,0,0-9.13,9.37,29.38,29.38,0,0,0-3.25,14.08,28.71,28.71,0,0,0,3.34,14.08A23.83,23.83,0,0,0,215,78.1a26.49,26.49,0,0,0,13.33,3.34q9.12,0,15.3-4.57a23.36,23.36,0,0,0,8.52-11.72H240.59Q237,72.4,228.35,72.4a14.56,14.56,0,0,1-10.18-3.77,14.37,14.37,0,0,1-4.61-10h39.65a33.69,33.69,0,0,0,.38-5.27,27,27,0,0,0-3.21-13.33A22.61,22.61,0,0,0,241.44,31.06ZM213.65,50a14.82,14.82,0,0,1,4.71-9.56,13.77,13.77,0,0,1,9.51-3.53,15.14,15.14,0,0,1,10.27,3.58A12.2,12.2,0,0,1,242.38,50Z"/><path class="a" d="M302,36a20.6,20.6,0,0,0-7.86-5.88,24.43,24.43,0,0,0-10-2.21,23.66,23.66,0,0,0-21.33,12.71,28.67,28.67,0,0,0-3.25,13.84,29.52,29.52,0,0,0,3.25,14,24.17,24.17,0,0,0,8.85,9.6A23.12,23.12,0,0,0,284,81.44,22.68,22.68,0,0,0,294.68,79a20.08,20.08,0,0,0,7.3-6.21v7.81h10.83V10.9H302Zm-2.21,28A15.52,15.52,0,0,1,294,70.05a15.21,15.21,0,0,1-7.73,2.07A15,15,0,0,1,278.58,70a15.54,15.54,0,0,1-5.84-6.17,19.28,19.28,0,0,1-2.21-9.42,18.43,18.43,0,0,1,2.21-9.27,15.19,15.19,0,0,1,5.79-5.94,15.43,15.43,0,0,1,7.72-2A15.21,15.21,0,0,1,294,39.25a15.58,15.58,0,0,1,5.79,6A18.81,18.81,0,0,1,302,54.6,19.12,19.12,0,0,1,299.77,64Z"/><path class="a" d="M355.55,28.42a15.67,15.67,0,0,1,8.24,2.17,14.24,14.24,0,0,1,5.61,6.31h17.7A29.84,29.84,0,0,0,375.9,20q-8.38-6.22-20.16-6.22A34.35,34.35,0,0,0,338.56,18a30.28,30.28,0,0,0-11.82,12,35.52,35.52,0,0,0-4.24,17.47,35.26,35.26,0,0,0,4.24,17.43,30.35,30.35,0,0,0,11.82,11.91,34.25,34.25,0,0,0,17.18,4.28q11.77,0,20.16-6.16A29.67,29.67,0,0,0,387.1,58H369.4a14.24,14.24,0,0,1-5.61,6.31,15.67,15.67,0,0,1-8.24,2.17,15.39,15.39,0,0,1-12.05-5.18q-4.62-5.17-4.61-13.85T343.5,33.6A15.39,15.39,0,0,1,355.55,28.42Z"/><path class="a" d="M443.22,40.05a24.34,24.34,0,0,0-9.79-9.46,31.09,31.09,0,0,0-27.88,0,24.28,24.28,0,0,0-9.79,9.46,27.87,27.87,0,0,0-3.58,14.27c0,.32,0,.63,0,.94s0,.4,0,.6a27.22,27.22,0,0,0,7.25,18l20,26.89L439.42,74a27.21,27.21,0,0,0,7.38-19.16s0-.08,0-.12,0-.26,0-.4A27.87,27.87,0,0,0,443.22,40.05ZM430.41,54.32c0,4-1,7.1-2.94,9.33A11.49,11.49,0,0,1,411,63.12a14.71,14.71,0,0,1-2.42-8.8,20.88,20.88,0,0,1,.28-3.37,11.52,11.52,0,0,1,21.31,0A20.58,20.58,0,0,1,430.41,54.32Z"/><path class="a" d="M489.75,56.58q0,5.28-2.73,8.19a9.68,9.68,0,0,1-7.44,2.92,9.53,9.53,0,0,1-7.34-2.92q-2.75-2.91-2.74-8.19V28h-16V58.75a26.34,26.34,0,0,0,2.55,12,18,18,0,0,0,7.15,7.77,20.81,20.81,0,0,0,10.65,2.69A20.26,20.26,0,0,0,483.11,79a17.61,17.61,0,0,0,6.64-5.6v7.15h16.11V28H489.75Z"/><path class="a" d="M548.2,27.48a20.94,20.94,0,0,0-9.32,2A17,17,0,0,0,532.29,35V28h-16.1V80.59h16.1V52.06q0-5.28,2.73-8.19a10.7,10.7,0,0,1,14.69,0q2.73,2.91,2.73,8.19V80.59h16V49.89q0-10.45-5.51-16.43T548.2,27.48Z"/><path class="a" d="M597.3,65.9a4.39,4.39,0,0,1-1.13-3.39V41.42h10.54V28H596.17V15.24H580.06V28h-6.4V41.42h6.4v20.9q0,9.71,4.9,14t13.66,4.28h8.19V66.94h-5.75A5.51,5.51,0,0,1,597.3,65.9Z"/><path class="a" d="M631.29,36.8V28h-16.1V80.59h16.1V56.2q0-6.5,3-9.09c2-1.72,5-2.59,9-2.59h4.42v-17A18.21,18.21,0,0,0,638.36,30,21.43,21.43,0,0,0,631.29,36.8Z"/><rect class="a" x="653.16" y="28.04" width="16.1" height="52.55"/><path class="a" d="M661.26,5.16a9.72,9.72,0,0,0-6.92,2.5,8.19,8.19,0,0,0-2.69,6.26,8.1,8.1,0,0,0,2.69,6.17,9.76,9.76,0,0,0,6.92,2.49,9.66,9.66,0,0,0,6.83-2.49,8.09,8.09,0,0,0,2.68-6.17,8.18,8.18,0,0,0-2.68-6.26A9.62,9.62,0,0,0,661.26,5.16Z"/><path class="a" d="M716.64,30.49a30.5,30.5,0,0,0-27.4.1A23.14,23.14,0,0,0,679.87,40a29.45,29.45,0,0,0-3.35,14.32,29.06,29.06,0,0,0,3.39,14.31,23.47,23.47,0,0,0,9.42,9.42,28.16,28.16,0,0,0,13.75,3.3A27.64,27.64,0,0,0,714.66,79,23.69,23.69,0,0,0,728,63.17H710.9q-2.35,5.08-8.38,5.09a9.65,9.65,0,0,1-6.83-2.59,11,11,0,0,1-3.16-7.49H729a40.67,40.67,0,0,0,.28-4.71,27.7,27.7,0,0,0-3.34-13.84A23,23,0,0,0,716.64,30.49Zm-24,18.74a10.47,10.47,0,0,1,3.43-6.68,10.22,10.22,0,0,1,6.83-2.36A10.43,10.43,0,0,1,710,42.64a8.28,8.28,0,0,1,2.82,6.59Z"/><path class="a" d="M775.72,56.63a16.45,16.45,0,0,0-6.45-4.71,81.77,81.77,0,0,0-9.51-3,38.27,38.27,0,0,1-7.49-2.26,3.61,3.61,0,0,1-2.4-3.39,3.49,3.49,0,0,1,1.5-3,7.4,7.4,0,0,1,4.34-1.08,8.38,8.38,0,0,1,5.32,1.6,6.41,6.41,0,0,1,2.4,4.33h14.88a19.07,19.07,0,0,0-6.55-13q-5.7-4.9-15.58-4.9a28,28,0,0,0-11.54,2.17,16.83,16.83,0,0,0-7.35,5.88,14.5,14.5,0,0,0-2.49,8.24q0,5.37,2.73,8.53a16.27,16.27,0,0,0,6.5,4.61,72.36,72.36,0,0,0,9.41,2.78,47.82,47.82,0,0,1,7.63,2.4,3.54,3.54,0,0,1,2.36,3.34,3.59,3.59,0,0,1-1.65,3.06,7.89,7.89,0,0,1-4.66,1.18,9,9,0,0,1-5.56-1.7A6.11,6.11,0,0,1,749,63.36H733.1a17,17,0,0,0,3.49,9.18A21,21,0,0,0,745.06,79a30.21,30.21,0,0,0,12.25,2.36,28.48,28.48,0,0,0,11.25-2.07,17.29,17.29,0,0,0,7.44-5.7,13.82,13.82,0,0,0,2.59-8.24A13.31,13.31,0,0,0,775.72,56.63Z"/></svg>